<svg width="534" height="589" viewBox="0 0 534 589" fill="none" xmlns="http://www.w3.org/2000/svg">
<path d="M13.3262 436.818L13.3262 145.606L155.778 226.498V356.734L269.741 422.257L383.702 356.734V226.498L526.156 145.606V436.818L269.741 582.423L13.3262 436.818Z" fill="#192657"/>
<path fill-rule="evenodd" clip-rule="evenodd" d="M84.5525 186.053L13.3262 145.606L269.741 0L526.156 145.606L454.929 186.053V400.416L269.741 509.621L84.5524 400.416L84.5525 186.053ZM447.213 190.435L383.702 226.498V225.689L269.741 160.166L155.778 225.689V226.498L92.2686 190.435V395.937L269.741 500.591L447.213 395.937V190.435Z" fill="url(#paint0_linear_8_314)"/>
<defs>
<linearGradient id="paint0_linear_8_314" x1="84.5524" y1="113.249" x2="469.174" y2="113.249" gradientUnits="userSpaceOnUse">
<stop stop-color="#64C2DB"/>
<stop offset="0.307292" stop-color="#7476ED"/>
<stop offset="0.604167" stop-color="#C994DF"/>
<stop offset="1" stop-color="#E56F8C"/>
</linearGradient>
</defs>
</svg>
